# xmcd
#
# Track frame offsets:
#	150
#	13809
#	25184
#	38518
#	51440
#	62685
#	74990
#	86327
#	100499
#	113917
#	126189
#	137399
#	149657
#	163020
#	174929
#	188276
#	203522
#	215906
#	229886
#	243459
#	256487
#	270136
#	283652
#	296574
#	308942
#	321257
#	331427
#	342584
#
# Disc length: 4716 seconds
#
# Revision: 0
# Processed by: cddbd v1.5.2PL0 Copyright (c) Steve Scherf et al.
# Submitted via: EasyCDDAExtractor 16.0.1.1
#
DISCID=ad126a1c
DTITLE=Wilf Carter [Montana Slim] - A Canadian Legend [Bear Family] Disc 2
DYEAR=194
DGENRE=Country
TTITLE0=There's A Love Knot In My Lariet
TTITLE1=It's Later Than You Think
TTITLE2=Too Many Blues (1947)
TTITLE3=Singing On Borrowed Time (1947)
TTITLE4=Just An Old Forgotten Letter
TTITLE5=She Lost Her Cowboy Pal 1949
TTITLE6=Ol' Lonely (1952)
TTITLE7=If We Can't Be Sweethearts, Why Can't We Be Friends
TTITLE8=Don't Cry Over Me (1949)
TTITLE9=Sharing Your Love With Somebody New (1947)
TTITLE10=Don't Wait 'Till Judgement Day (To Cast Your Sins Away) (1947)
TTITLE11=Cowboy Days Ain't Ramblin' Days No More (1952)
TTITLE12='Neath A Blanket Of Stars
TTITLE13=I Never Knew That I Could Be So Blue (1952)
TTITLE14=It's Just A Wild Rose I'm Sending (1993)
TTITLE15=Where The Sleepy Rio's Flowing (1952)
TTITLE16=You'll Be Sorry You Turned Me Down (1993)
TTITLE17=Dreamy Lullaby Yodel (1952)
TTITLE18=It's Hard To Forget You (1993)
TTITLE19=The Tramp's Mother
TTITLE20=Take Away Those Blues Around My Heart (1993)
TTITLE21=The Midnight Train
TTITLE22=I'm Gonna Tear Down The Mailbox (1948)
TTITLE23=It Can't Be Done (1993)
TTITLE24=All I Need Is More Lovin' (1949)
TTITLE25=(There's A) Bluebird On Your Windowsill (1949)
TTITLE26=When The Iceworms Nest Again (1949)
TTITLE27=Shackles And Chains (1949)
EXTD=
EXTT0=
EXTT1=
EXTT2=
EXTT3=
EXTT4=
EXTT5=
EXTT6=
EXTT7=
EXTT8=
EXTT9=
EXTT10=
EXTT11=
EXTT12=
EXTT13=
EXTT14=
EXTT15=
EXTT16=
EXTT17=
EXTT18=
EXTT19=
EXTT20=
EXTT21=
EXTT22=
EXTT23=
EXTT24=
EXTT25=
EXTT26=
EXTT27=
PLAYORDER=
